<svg width="1024" height="1024" viewBox="0 0 1024 1024" fill="none" xmlns="http://www.w3.org/2000/svg">
<g clip-path="url(#clip0_130_320)">
<path d="M0 0C337.92 0 675.84 0 1024 0C1024 337.92 1024 675.84 1024 1024C686.08 1024 348.16 1024 0 1024C0 686.08 0 348.16 0 0Z" fill="#141413"/>
<path d="M621.284 261.564C624.069 261.567 626.854 261.561 629.639 261.555C636.224 261.541 642.809 261.543 649.395 261.554C656.122 261.565 662.849 261.551 669.576 261.525C675.415 261.502 681.253 261.496 687.092 261.502C690.551 261.505 694.011 261.503 697.47 261.485C732.898 261.347 765.543 268.293 793 292C793.538 292.456 794.077 292.912 794.631 293.382C822.669 317.327 840.074 352.302 843 389C843.126 392.146 843.14 395.286 843.134 398.434C843.136 399.328 843.138 400.222 843.141 401.143C843.147 404.111 843.146 407.078 843.145 410.045C843.148 412.185 843.152 414.324 843.156 416.464C843.164 422.258 843.167 428.052 843.167 433.846C843.168 437.473 843.17 441.101 843.173 444.728C843.182 457.405 843.186 470.083 843.186 482.76C843.185 494.54 843.195 506.319 843.211 518.099C843.224 528.241 843.23 538.384 843.229 548.526C843.229 554.57 843.232 560.615 843.242 566.659C843.252 572.353 843.252 578.046 843.245 583.739C843.244 585.815 843.246 587.89 843.252 589.966C843.296 606.074 842.922 622.221 838.438 637.813C838.052 639.177 838.052 639.177 837.659 640.569C826.918 677.021 804.453 706.491 771.109 724.927C747.652 737.319 722.393 738.631 696.36 738.537C692.586 738.527 688.812 738.537 685.037 738.543C678.709 738.55 672.381 738.541 666.052 738.522C658.793 738.5 651.535 738.507 644.277 738.529C637.979 738.547 631.681 738.549 625.383 738.539C621.65 738.533 617.917 738.532 614.185 738.545C598.1 738.595 582.619 738.25 567 734C566.301 733.811 565.602 733.621 564.881 733.426C535.352 725.254 509.418 701.983 494 676C493.566 675.271 493.132 674.542 492.685 673.791C480.384 652.707 472.848 628.791 472.853 604.282C472.849 603.333 472.846 602.384 472.842 601.407C472.831 598.242 472.827 595.077 472.823 591.913C472.817 589.637 472.81 587.361 472.803 585.086C472.782 577.624 472.772 570.161 472.762 562.699C472.758 560.123 472.754 557.547 472.75 554.97C472.733 544.246 472.718 533.522 472.711 522.798C472.709 520.02 472.707 517.242 472.705 514.465C472.705 513.774 472.704 513.084 472.704 512.373C472.695 501.212 472.67 490.051 472.637 478.89C472.604 467.399 472.587 455.908 472.583 444.416C472.581 437.977 472.572 431.539 472.547 425.1C472.523 419.034 472.519 412.967 472.529 406.901C472.53 404.688 472.524 402.476 472.51 400.263C472.284 361.935 486.8 327.411 513.367 299.633C543.704 269.296 579.595 261.491 621.284 261.564Z" fill="#FDFDFC"/>
<path d="M238 262C266.05 262 294.1 262 323 262C323 292.36 323 322.72 323 354C354.68 354 386.36 354 419 354C419 377.43 419 400.86 419 425C387.32 425 355.64 425 323 425C323.12 456.804 323.12 456.804 323.258 488.607C323.318 501.584 323.377 514.56 323.422 527.537C323.455 536.989 323.495 546.441 323.543 555.894C323.568 560.894 323.59 565.894 323.603 570.894C323.616 575.611 323.638 580.328 323.667 585.045C323.676 586.765 323.682 588.486 323.684 590.207C323.713 610.478 324.949 629.89 339.125 645.688C350.613 656.592 365.238 657.291 380.195 657.414C382.097 657.441 382.097 657.441 384.037 657.468C388.733 657.53 393.429 657.577 398.125 657.625C408.644 657.749 419.163 657.872 430 658C430 684.4 430 710.8 430 738C420.992 739.126 420.992 739.126 416.424 739.161C415.401 739.171 414.378 739.18 413.324 739.19C411.694 739.197 411.694 739.197 410.031 739.203C408.879 739.209 407.726 739.215 406.539 739.22C404.098 739.23 401.657 739.236 399.216 739.24C395.567 739.25 391.919 739.281 388.27 739.312C349.49 739.488 307.177 733.527 277 707C275.757 705.971 275.757 705.971 274.488 704.922C250.904 684.841 240.655 653.008 238 623C237.877 620.132 237.869 617.271 237.88 614.401C237.879 613.585 237.878 612.768 237.877 611.927C237.876 609.219 237.881 606.511 237.886 603.802C237.887 601.85 237.887 599.898 237.886 597.946C237.886 592.666 237.892 587.386 237.899 582.105C237.905 576.58 237.905 571.055 237.907 565.53C237.91 555.075 237.918 544.621 237.928 534.166C237.939 522.26 237.945 510.355 237.95 498.449C237.96 473.966 237.978 449.483 238 425C213.25 425 188.5 425 163 425C163 401.57 163 378.14 163 354C187.75 354 212.5 354 238 354C238 323.64 238 293.28 238 262Z" fill="#FDFDFC"/>
<rect x="549" y="343" width="219" height="320" rx="45" fill="#141413"/>
<rect x="776.41" y="342" width="73" height="388.28" transform="rotate(47.3126 776.41 342)" fill="#FDFDFC"/>
<path d="M470 387C470.33 387 470.66 387 471 387C471 425.28 471 463.56 471 503C470.01 502.67 469.02 502.34 468 502C468 501.34 468 500.68 468 500C468.66 500 469.32 500 470 500C469.505 489.605 469.505 489.605 469 479C467.02 479.99 467.02 479.99 465 481C464.814 479.298 464.814 479.298 464.625 477.562C464.316 475.799 464.316 475.799 464 474C463.34 473.67 462.68 473.34 462 473C462.66 473 463.32 473 464 473C464.565 470.819 465.068 468.65 465.5 466.438C466 464 466 464 467 461C467.99 461 468.98 461 470 461C470 436.58 470 412.16 470 387Z" fill="#1A1A19"/>
<path d="M239 262C251.21 262 263.42 262 276 262C275.01 262.33 274.02 262.66 273 263C273 263.66 273 264.32 273 265C271.521 265.027 270.042 265.046 268.562 265.062C267.327 265.08 267.327 265.08 266.066 265.098C264 265 264 265 263 264C261.221 263.842 259.437 263.749 257.652 263.684C256.573 263.642 255.493 263.6 254.381 263.557C252.676 263.498 252.676 263.498 250.938 263.438C249.797 263.394 248.657 263.351 247.482 263.307C244.655 263.2 241.828 263.098 239 263C239 262.67 239 262.34 239 262Z" fill="#F5F4F2"/>
<path d="M266 697C268.264 698.404 270.021 700.197 272 702C269.509 702.687 267.621 703 265 703C265 702.34 265 701.68 265 701C264.01 700.67 263.02 700.34 262 700C263 698 263 698 266 697Z" fill="#0D0D0C"/>
<path d="M359 650C359.66 650.33 360.32 650.66 361 651C361 651.66 361 652.32 361 653C361.99 653 362.98 653 364 653C364 653.66 364 654.32 364 655C364.99 655.33 365.98 655.66 367 656C364.03 655.67 361.06 655.34 358 655C358.33 653.35 358.66 651.7 359 650Z" fill="#1A1A18"/>
<path d="M730 737C730.33 737.99 730.66 738.98 731 740C728.36 740 725.72 740 723 740C725.5 736.999 725.738 737 730 737Z" fill="#1C191A"/>
</g>
<defs>
<clipPath id="clip0_130_320">
<rect width="1024" height="1024" fill="white"/>
</clipPath>
</defs>
</svg>
